# This file uses centimeters as units for non-parametric coordinates.

mtllib caja - Almudena.mtl
g default
v 7823.585551 276.891795 330.012200
v 7823.585551 276.891795 130.392254
v 7823.585551 55.303789 130.392201
v 7823.585551 55.303789 330.012227
v 8023.480839 276.891795 330.012200
v 8023.480839 55.303789 330.012227
v 8023.480839 55.303789 130.392201
v 8023.480839 276.891795 130.392254
v 7812.474200 66.951353 330.012227
v 7812.474200 66.951353 130.392201
v 7823.585551 66.951353 118.771258
v 8023.480839 66.951353 118.771258
v 8034.062193 66.951353 130.392201
v 8034.062193 66.951353 330.012227
v 8023.480839 66.951353 340.359277
v 7823.585551 66.951353 340.359277
v 7812.474200 266.273856 130.392254
v 7812.474200 266.273750 330.012200
v 7823.585551 266.273856 340.359277
v 8023.480839 266.273750 340.359277
v 8034.062193 266.273856 330.012200
v 8034.062193 266.273750 130.392254
v 8023.480839 266.273856 118.771258
v 7823.585551 266.273750 118.771258
v 7807.473458 50.303800 345.359279
v 7823.585551 50.303800 345.359279
v 7823.585551 66.951353 345.359279
v 7807.473458 66.951346 345.359279
v 7807.473458 281.891798 345.359279
v 7823.585551 281.891798 345.359279
v 7823.585551 281.891798 330.012200
v 7807.473458 281.891798 330.012200
v 7807.473458 66.951353 113.771255
v 7823.585551 66.951353 113.771255
v 7823.585551 50.303800 113.771255
v 7807.473458 50.303800 113.771255
v 7807.473458 50.303800 330.012227
v 7823.585551 50.303800 330.012227
v 8039.062090 50.303800 330.012227
v 8039.062090 50.303800 345.359279
v 8039.062090 66.951339 330.012227
v 8039.062090 66.951346 345.359279
v 7807.473458 66.951353 330.012227
v 7807.473458 50.303800 130.392201
v 7807.473458 66.951353 130.392201
v 7823.585551 50.303800 130.392201
v 8039.062090 66.951353 113.771255
v 8039.062090 66.951353 130.392201
v 8039.062090 50.303800 130.392201
v 8039.062090 50.303800 113.771255
v 7807.473458 281.891798 130.392254
v 7823.585551 281.891798 130.392254
v 7823.585551 281.891798 113.771255
v 7807.473458 281.891798 113.771255
v 8023.480839 66.951353 345.359279
v 8023.480839 50.303800 345.359279
v 8023.480839 281.891798 330.012200
v 8023.480839 281.891798 345.359279
v 8039.062090 281.891798 345.359279
v 8039.062090 281.891798 330.012200
v 8023.480839 281.891798 130.392254
v 8039.062090 281.891798 130.392254
v 8023.480839 281.891798 113.771255
v 8039.062090 281.891798 113.771255
v 8023.480839 50.303800 113.771255
v 8023.480839 66.951353 113.771255
v 8023.480839 50.303800 130.392201
v 8023.480839 50.303800 330.012227
v 7807.473458 266.273724 330.012200
v 7807.473458 266.273856 345.359279
v 7807.473458 266.273856 130.392254
v 7807.473458 266.273750 113.771255
v 7823.585551 266.273750 113.771255
v 8023.480839 266.273856 113.771255
v 8039.062090 266.273750 113.771255
v 8039.062090 266.273750 130.392254
v 8039.062090 266.273856 330.012200
v 8039.062090 266.273856 345.359279
v 8023.480839 266.273750 345.359279
v 7823.585551 266.273856 345.359279
vt 0.375000 0.000000
vt 0.625000 0.000000
vt 0.375000 0.250000
vt 0.625000 0.250000
vt 0.375000 0.500000
vt 0.625000 0.500000
vt 0.375000 0.750000
vt 0.625000 0.750000
vt 0.375000 1.000000
vt 0.625000 1.000000
vt 0.875000 0.000000
vt 0.875000 0.250000
vt 0.125000 0.000000
vt 0.125000 0.250000
vt 0.363326 0.250000
vt 0.375000 0.261674
vt 0.363326 0.000000
vt 0.375000 0.988326
vt 0.625000 0.988326
vt 0.636674 0.000000
vt 0.625000 0.261674
vt 0.636674 0.250000
vt 0.138111 0.000000
vt 0.375000 0.763111
vt 0.138111 0.250000
vt 0.375000 0.486889
vt 0.625000 0.486889
vt 0.861889 0.250000
vt 0.625000 0.763111
vt 0.861889 0.000000
vt 0.387536 0.000000
vt 0.387536 1.000000
vt 0.387536 0.250000
vt 0.387536 0.261674
vt 0.387536 0.486889
vt 0.387536 0.500000
vt 0.387536 0.750000
vt 0.387536 0.763111
vt 0.387536 0.988326
vt 0.613063 0.261674
vt 0.613063 0.250000
vt 0.613063 0.000000
vt 0.613063 1.000000
vt 0.613063 0.988326
vt 0.613063 0.763111
vt 0.613063 0.750000
vt 0.613063 0.500000
vt 0.613063 0.486889
vt 0.375000 0.013141
vt 0.363326 0.013141
vt 0.138111 0.013141
vt 0.125000 0.013141
vt 0.375000 0.736859
vt 0.387536 0.736859
vt 0.613063 0.736859
vt 0.625000 0.736859
vt 0.875000 0.013141
vt 0.861889 0.013141
vt 0.636674 0.013141
vt 0.625000 0.013141
vt 0.613063 0.013141
vt 0.387536 0.013141
vt 0.125000 0.238020
vt 0.375000 0.511980
vt 0.138111 0.238021
vt 0.363326 0.238020
vt 0.375000 0.238021
vt 0.387536 0.238021
vt 0.613063 0.238020
vt 0.625000 0.238021
vt 0.636674 0.238021
vt 0.861889 0.238020
vt 0.625000 0.511980
vt 0.875000 0.238020
vt 0.613063 0.511979
vt 0.387536 0.511980
vt 0.363326 0.013141
vt 0.138111 0.013141
vt 0.387536 0.261674
vt 0.387536 0.486889
vt 0.861889 0.013141
vt 0.636674 0.013141
vt 0.387536 0.763111
vt 0.387536 0.988326
vt 0.613063 0.486889
vt 0.613063 0.261674
vt 0.613063 0.988326
vt 0.613063 0.763111
vt 0.613063 0.013141
vt 0.387536 0.013141
vt 0.387536 0.736859
vt 0.613063 0.736859
vt 0.138111 0.238021
vt 0.363326 0.238020
vt 0.613063 0.511979
vt 0.387536 0.511980
vt 0.636674 0.238021
vt 0.861889 0.238020
vt 0.387536 0.238021
vt 0.613063 0.238020
vn 0.000000 0.000000 1.000000
vn 0.000000 0.000000 1.000000
vn 0.000000 0.000000 1.000000
vn 0.000000 0.000000 1.000000
vn 0.000000 1.000000 0.000000
vn 0.000000 1.000000 0.000000
vn 0.000000 1.000000 0.000000
vn 0.000000 1.000000 0.000000
vn 0.000000 0.000000 -1.000000
vn 0.000000 0.000000 -1.000000
vn 0.000000 0.000000 -1.000000
vn 0.000000 0.000000 -1.000000
vn 0.000000 -1.000000 0.000000
vn 0.000000 -1.000000 0.000000
vn 0.000000 -1.000000 0.000000
vn 0.000000 -1.000000 0.000000
vn 1.000000 0.000000 0.000000
vn 1.000000 0.000000 0.000000
vn 1.000000 0.000000 0.000000
vn 1.000000 0.000000 0.000000
vn -1.000000 0.000000 0.000000
vn -1.000000 0.000000 0.000000
vn -1.000000 0.000000 0.000000
vn -1.000000 0.000000 0.000000
vn -1.000000 0.000000 0.000000
vn -1.000000 0.000000 0.000000
vn -1.000000 -0.000000 0.000000
vn -1.000000 -0.000000 0.000000
vn 0.000000 -1.000000 0.000000
vn 0.000000 -1.000000 0.000000
vn 0.000000 -1.000000 0.000000
vn 0.000000 -1.000000 0.000000
vn 1.000000 -0.000000 0.000000
vn 1.000000 -0.000000 0.000000
vn 1.000000 0.000000 0.000000
vn 1.000000 0.000000 0.000000
vn 0.000000 1.000000 0.000000
vn 0.000000 1.000000 0.000000
vn 0.000000 1.000000 0.000000
vn 0.000000 1.000000 0.000000
vn 0.000000 0.000000 1.000000
vn 0.000000 0.000000 1.000000
vn 0.000000 0.000000 1.000000
vn 0.000000 0.000000 1.000000
vn 0.000000 1.000000 0.000000
vn 0.000000 1.000000 0.000000
vn 0.000000 1.000000 0.000000
vn 0.000000 1.000000 0.000000
vn 0.000000 1.000000 0.000000
vn 0.000000 1.000000 0.000000
vn 0.000000 1.000000 0.000000
vn 0.000000 1.000000 0.000000
vn 0.000000 0.000000 -1.000000
vn 0.000000 0.000000 -1.000000
vn 0.000000 0.000000 -1.000000
vn 0.000000 0.000000 -1.000000
vn 0.000000 -1.000000 0.000000
vn 0.000000 -1.000000 0.000000
vn 0.000000 -1.000000 0.000000
vn 0.000000 -1.000000 0.000000
vn 0.000000 -1.000000 0.000000
vn 0.000000 -1.000000 0.000000
vn 0.000000 -1.000000 0.000000
vn 0.000000 -1.000000 0.000000
vn 0.000000 -1.000000 0.000000
vn 0.000000 -1.000000 0.000000
vn 0.000000 -1.000000 0.000000
vn 0.000000 -1.000000 0.000000
vn 0.000000 1.000000 0.000000
vn 0.000000 1.000000 0.000000
vn 0.000000 1.000000 0.000000
vn 0.000000 1.000000 0.000000
vn -1.000000 0.000000 0.000000
vn -1.000000 0.000000 0.000000
vn -1.000000 0.000000 0.000000
vn -1.000000 0.000000 0.000000
vn -1.000000 0.000000 0.000000
vn -1.000000 -0.000000 0.000000
vn -1.000000 -0.000000 0.000000
vn -1.000000 0.000000 0.000000
vn 0.000000 0.000000 -1.000000
vn 0.000000 0.000000 -1.000000
vn 0.000000 0.000000 -1.000000
vn 0.000000 0.000000 -1.000000
vn 0.000000 0.000000 -1.000000
vn 0.000000 0.000000 -1.000000
vn 0.000000 0.000000 -1.000000
vn 0.000000 0.000000 -1.000000
vn 1.000000 0.000000 0.000000
vn 1.000000 -0.000000 0.000000
vn 1.000000 -0.000000 0.000000
vn 1.000000 0.000000 0.000000
vn 1.000000 0.000000 0.000000
vn 1.000000 0.000000 0.000000
vn 1.000000 0.000000 0.000000
vn 1.000000 0.000000 0.000000
vn 0.000000 0.000000 1.000000
vn 0.000000 0.000000 1.000000
vn 0.000000 0.000000 1.000000
vn 0.000000 0.000000 1.000000
vn 0.000000 0.000000 1.000000
vn 0.000000 0.000000 1.000000
vn 0.000000 0.000000 1.000000
vn 0.000000 0.000000 1.000000
vn -1.000000 0.000000 0.000000
vn -1.000000 0.000000 0.000000
vn -1.000000 0.000000 0.000000
vn -1.000000 0.000000 0.000000
vn 0.000000 0.000000 1.000000
vn 0.000000 0.000000 1.000000
vn 0.000000 0.000000 1.000000
vn 0.000000 0.000000 1.000000
vn 1.000000 0.000000 0.000000
vn 1.000000 0.000000 0.000000
vn 1.000000 0.000000 0.000000
vn 1.000000 0.000000 0.000000
vn 0.000000 0.000000 -1.000000
vn 0.000000 0.000000 -1.000000
vn 0.000000 0.000000 -1.000000
vn 0.000000 0.000000 -1.000000
vn 0.000000 1.000000 0.000000
vn 0.000000 1.000000 0.000000
vn 0.000000 1.000000 0.000000
vn 0.000000 1.000000 0.000000
vn 1.000000 0.000000 0.000000
vn 1.000000 0.000000 0.000000
vn 1.000000 0.000000 0.000000
vn 1.000000 0.000000 0.000000
vn 0.000001 1.000000 0.000000
vn 0.000001 1.000000 0.000000
vn 0.000001 1.000000 0.000000
vn 0.000001 1.000000 0.000000
vn 1.000000 0.000000 0.000000
vn 1.000000 0.000000 0.000000
vn 1.000000 0.000000 0.000000
vn 1.000000 0.000000 0.000000
vn -1.000000 0.000000 0.000000
vn -1.000000 0.000000 0.000000
vn -1.000000 0.000000 0.000000
vn -1.000000 0.000000 0.000000
vn -1.000000 0.000000 0.000000
vn -1.000000 0.000000 0.000000
vn -1.000000 0.000000 0.000000
vn -1.000000 0.000000 0.000000
vn 0.000000 0.000000 -1.000000
vn 0.000000 0.000000 -1.000000
vn 0.000000 0.000000 -1.000000
vn 0.000000 0.000000 -1.000000
vn 0.000000 1.000000 0.000000
vn 0.000000 1.000000 0.000000
vn 0.000000 1.000000 0.000000
vn 0.000000 1.000000 0.000000
vn 0.000000 0.000000 -1.000000
vn 0.000000 0.000000 -1.000000
vn 0.000000 0.000000 -1.000000
vn 0.000000 0.000000 -1.000000
vn 0.000000 0.000000 1.000000
vn 0.000000 0.000000 1.000000
vn 0.000000 0.000000 1.000000
vn 0.000000 0.000000 1.000000
vn 0.000000 1.000000 0.000000
vn 0.000000 1.000000 0.000000
vn 0.000000 1.000000 0.000000
vn 0.000000 1.000000 0.000000
vn 0.000000 0.000000 1.000000
vn 0.000000 0.000000 1.000000
vn 0.000000 0.000000 1.000000
vn 0.000000 0.000000 1.000000
vn 0.000003 -1.000000 -0.000001
vn 0.000003 -1.000000 -0.000001
vn 0.000003 -1.000000 -0.000001
vn 0.000003 -1.000000 -0.000001
vn 0.000001 -1.000000 0.000000
vn 0.000001 -1.000000 0.000000
vn 0.000001 -1.000000 0.000000
vn 0.000001 -1.000000 0.000000
vn 0.000000 -1.000000 0.000001
vn 0.000000 -1.000000 0.000001
vn 0.000000 -1.000000 0.000001
vn 0.000000 -1.000000 0.000001
vn -0.000001 -1.000000 0.000000
vn -0.000001 -1.000000 0.000000
vn -0.000001 -1.000000 0.000000
vn -0.000001 -1.000000 0.000000
vn 0.000000 -0.000000 1.000000
vn 0.000000 -0.000000 1.000000
vn 0.000000 -0.000000 1.000000
vn 0.000000 -0.000000 1.000000
vn -0.000001 -0.000000 -1.000000
vn -0.000001 -0.000000 -1.000000
vn -0.000001 -0.000000 -1.000000
vn -0.000001 -0.000000 -1.000000
vn 1.000000 0.000000 0.000000
vn 1.000000 0.000000 0.000000
vn 1.000000 0.000000 0.000000
vn 1.000000 0.000000 0.000000
vn -1.000000 0.000000 0.000000
vn -1.000000 0.000000 0.000000
vn -1.000000 0.000000 0.000000
vn -1.000000 0.000000 0.000000
vn 0.000000 -0.000000 -1.000000
vn 0.000000 -0.000000 -1.000000
vn 0.000000 -0.000000 -1.000000
vn 0.000000 -0.000000 -1.000000
vn 0.000000 -0.000000 1.000000
vn 0.000000 -0.000000 1.000000
vn 0.000000 -0.000000 1.000000
vn 0.000000 -0.000000 1.000000
vn -1.000000 0.000000 0.000000
vn -1.000000 0.000000 0.000000
vn -1.000000 0.000000 0.000000
vn -1.000000 0.000000 0.000000
vn 1.000000 0.000000 0.000000
vn 1.000000 0.000000 0.000000
vn 1.000000 0.000000 0.000000
vn 1.000000 0.000000 0.000000
s 1
g caja1
usemtl initialShadingGroup
f 25/1/1 26/31/2 27/90/3 28/49/4
s 2
f 29/3/5 30/33/6 31/79/7 32/16/8
s 3
f 33/53/9 34/91/10 35/37/11 36/7/12
s 4
f 37/18/13 38/84/14 26/32/15 25/9/16
s 5
f 40/2/17 39/20/18 41/82/19 42/60/20
s 6
f 28/49/21 43/77/22 37/17/23 25/1/24
f 36/13/25 44/23/26 45/78/27 33/52/28
s 4
f 36/7/29 35/37/30 46/83/31 44/24/32
s 5
f 47/57/33 48/81/34 49/30/35 50/11/36
s 2
f 51/26/37 52/80/38 53/36/39 54/5/40
s 6
f 43/77/22 45/78/27 44/23/26 37/17/23
s 2
f 32/16/8 31/79/7 52/80/38 51/26/37
s 5
f 48/81/34 41/82/19 39/20/18 49/30/35
s 4
f 44/24/32 46/83/31 38/84/14 37/18/13
s 1
f 42/60/41 55/89/42 56/42/43 40/2/44
s 2
f 57/86/45 58/41/46 59/4/47 60/21/48
f 61/85/49 57/86/45 60/21/48 62/27/50
f 63/47/51 61/85/49 62/27/50 64/6/52
s 3
f 65/46/53 66/92/54 47/56/55 50/8/56
s 4
f 67/88/57 65/46/58 50/8/59 49/29/60
f 68/87/61 67/88/57 49/29/60 39/19/62
f 56/43/63 68/87/61 39/19/62 40/10/64
s 2
f 31/79/7 30/33/6 58/41/46 57/86/45
s 1
f 55/89/42 27/90/3 26/31/2 56/42/43
s 4
f 26/32/15 38/84/14 68/87/61 56/43/63
s off
f 4/39/65 3/38/66 7/45/67 6/44/68
s 4
f 46/83/31 35/37/30 65/46/58 67/88/57
s 3
f 35/37/11 34/91/10 66/92/54 65/46/53
s 2
f 53/36/39 52/80/38 61/85/49 63/47/51
s off
f 2/35/69 1/34/70 5/40/71 8/48/72
s 6
f 32/15/73 69/94/74 70/67/75 29/3/76
f 51/25/77 71/93/78 69/94/74 32/15/73
f 72/63/79 71/93/78 51/25/77 54/14/80
s 3
f 54/5/81 53/36/82 73/96/83 72/64/84
f 74/95/85 73/96/83 53/36/82 63/47/86
f 75/73/87 74/95/85 63/47/86 64/6/88
s 5
f 62/28/89 76/98/90 75/74/91 64/12/92
f 60/22/93 77/97/94 76/98/90 62/28/89
f 78/70/95 77/97/94 60/22/93 59/4/96
s 1
f 58/41/97 79/100/98 78/70/99 59/4/100
f 30/33/101 80/99/102 79/100/98 58/41/97
f 70/67/103 80/99/102 30/33/101 29/3/104
s 6
f 33/52/28 45/78/27 71/93/78 72/63/79
s off
f 18/66/105 17/65/106 10/51/107 9/50/108
s 6
f 70/67/75 69/94/74 43/77/22 28/49/21
s 1
f 28/49/4 27/90/3 80/99/102 70/67/103
s off
f 20/69/109 19/68/110 16/62/111 15/61/112
s 1
f 78/70/99 79/100/98 55/89/42 42/60/41
s 5
f 42/60/20 41/82/19 77/97/94 78/70/95
s off
f 22/72/113 21/71/114 14/59/115 13/58/116
s 5
f 75/74/91 76/98/90 48/81/34 47/57/33
s 3
f 47/56/55 66/92/54 74/95/85 75/73/87
s off
f 12/55/117 11/54/118 24/76/119 23/75/120
s 3
f 72/64/84 73/96/83 34/91/10 33/53/9
s off
f 9/50/121 10/51/122 45/78/123 43/77/124
f 1/34/125 2/35/126 52/80/127 31/79/128
f 13/58/129 14/59/130 41/82/131 48/81/132
f 3/38/133 4/39/134 38/84/135 46/83/136
f 8/48/137 5/40/138 57/86/139 61/85/140
f 6/44/141 7/45/142 67/88/143 68/87/144
f 5/40/145 1/34/146 31/79/147 57/86/148
f 15/61/149 16/62/150 27/90/151 55/89/152
f 4/39/153 6/44/154 68/87/155 38/84/156
f 7/45/157 3/38/158 46/83/159 67/88/160
f 11/54/161 12/55/162 66/92/163 34/91/164
f 2/35/165 8/48/166 61/85/167 52/80/168
f 17/65/169 18/66/170 69/94/171 71/93/172
f 23/75/173 24/76/174 73/96/175 74/95/176
f 21/71/177 22/72/178 76/98/179 77/97/180
f 19/68/181 20/69/182 79/100/183 80/99/184
f 10/51/185 17/65/186 71/93/187 45/78/188
f 18/66/189 9/50/190 43/77/191 69/94/192
f 16/62/193 19/68/194 80/99/195 27/90/196
f 20/69/197 15/61/198 55/89/199 79/100/200
f 14/59/201 21/71/202 77/97/203 41/82/204
f 22/72/205 13/58/206 48/81/207 76/98/208
f 12/55/209 23/75/210 74/95/211 66/92/212
f 24/76/213 11/54/214 34/91/215 73/96/216
